<svg xmlns="http://www.w3.org/2000/svg" viewBox="0 0 659.06 146.05"><g id="Layer_2" data-name="Layer 2"><g id="Layer_1-2" data-name="Layer 1"><path d="M93.17,30a6.9,6.9,0,0,1-2.59,5.72A19.9,19.9,0,0,1,84.1,39a72.1,72.1,0,0,1-8.31,2.06,70.32,70.32,0,0,0-8.24,2.06l1.83.76a26.68,26.68,0,0,1,9.54,8.24,21.78,21.78,0,0,1,4,13.27,22.16,22.16,0,0,1-8.62,18.45,31.55,31.55,0,0,1-8.69,4.8A60.86,60.86,0,0,1,56,91.31a70.21,70.21,0,0,1-9.38,1.14c-3,.16-5.52.23-7.55.23s-4.15,0-6.63.08a43.75,43.75,0,0,0-7,.68,15.75,15.75,0,0,0-5.49,2,4.39,4.39,0,0,0-2.21,4,6.35,6.35,0,0,0,1.3,3.89Q20.28,105,25.31,105a42.58,42.58,0,0,0,8.54-.84c2.75-.55,5.57-1.19,8.47-1.9s6-1.35,9.3-1.91a67.48,67.48,0,0,1,11.21-.84,40.1,40.1,0,0,1,9.22,1A17.66,17.66,0,0,1,79.3,104,16.35,16.35,0,0,1,84,110.83a29.83,29.83,0,0,1,1.68,10.82q0,7.63-4,12.43a26.74,26.74,0,0,1-10.07,7.47,48.24,48.24,0,0,1-13.42,3.59,114.23,114.23,0,0,1-14.18.91q-5.79,0-12.58-.38A79.61,79.61,0,0,1,18.83,144,32.07,32.07,0,0,1,9,140.26c-2.65-1.63-4-3.76-4-6.41a10.15,10.15,0,0,1,1.91-6.32Q8.85,125,11.13,125a20.18,20.18,0,0,1-6-3.2A14.31,14.31,0,0,1,1.75,118a11.26,11.26,0,0,1-1.44-4A24.23,24.23,0,0,1,0,110.22a14.74,14.74,0,0,1,2.82-9.38A20.14,20.14,0,0,1,9.76,95.2a30.28,30.28,0,0,1,8.84-2.82q4.72-.76,8.7-1.07A47.91,47.91,0,0,1,19.21,89a36.15,36.15,0,0,1-8.69-4.65,25.73,25.73,0,0,1-6.94-7.62A21.53,21.53,0,0,1,.76,65.39c0-5.5,1.32-10,4-13.5A29,29,0,0,1,14.79,43.5a44.25,44.25,0,0,1,13.35-4.27,89.58,89.58,0,0,1,14-1.14,80.8,80.8,0,0,1,11.59.84,52.11,52.11,0,0,1,11.59,3.12q1.37-2.74,3.35-5.94a43.16,43.16,0,0,1,4.5-6,25,25,0,0,1,5.64-4.72,12.55,12.55,0,0,1,6.64-1.91,14,14,0,0,1,2.36.23,8.14,8.14,0,0,1,2.52.91,5.89,5.89,0,0,1,2,2A6.2,6.2,0,0,1,93.17,30ZM44.22,144.83q13.58,0,19.52-3.73t5.95-10.3a6.07,6.07,0,0,0-2.36-5q-2.37-1.91-7.7-1.91a23.82,23.82,0,0,0-6.49.84q-3,.84-6,1.83t-6.48,1.83a34,34,0,0,1-8,.84H27.91c-.41,0-.61-.05-.61-.15a8.31,8.31,0,0,0-2.44.61,4,4,0,0,0-1.61,1,2.6,2.6,0,0,0-.68,1.9q0,6.56,5.11,9.38T44.22,144.83ZM50.78,88q2.89-2.58,3.35-8.69t.46-13.87c0-2.54,0-5-.07-7.48s-.18-4.67-.39-6.71A21.6,21.6,0,0,0,53,45.87a8.42,8.42,0,0,0-2.21-3.51A13.5,13.5,0,0,0,46,39.54a17.89,17.89,0,0,0-3.74-.38h-.61a11.77,11.77,0,0,0-6.71,1.67,10.49,10.49,0,0,0-3.74,5A28.5,28.5,0,0,0,29.51,54c-.26,3.25-.38,7.06-.38,11.44,0,3.66.07,7,.23,9.91a37.9,37.9,0,0,0,1.06,7.62,13,13,0,0,0,2.52,5.19,7.94,7.94,0,0,0,4.57,2.59q.62.15,1.38.3a7.48,7.48,0,0,0,1.6.16h2c.62,0,1.17,0,1.68-.08s1-.13,1.53-.23a8,8,0,0,0,1.52-.46,7.43,7.43,0,0,0,1.45-.76A20.22,20.22,0,0,0,50.78,88Z"/><path d="M145.48,117.38v1.22H92v-1.22h11.59V41H92V39.77c2.85,0,6.25-.05,10.22-.16s8-.28,12-.53,7.8-.58,11.36-1A55.4,55.4,0,0,0,134,36.56v80.82Z"/><path d="M186.65,106.25a18.58,18.58,0,0,0,4,6.64,13.91,13.91,0,0,0,5.19,3.5,15.4,15.4,0,0,0,5.33,1v1.22H184.05a64,64,0,0,1-12.65-1.06,19.29,19.29,0,0,1-8.39-3.66,14.15,14.15,0,0,1-4.57-6.94,37.21,37.21,0,0,1-1.38-11.06V41H145.63V39.77h4.88a26.06,26.06,0,0,0,12.42-3.21,41.81,41.81,0,0,0,10.6-7.93,45,45,0,0,0,7.4-10q2.82-5.26,2.82-9.23h1.37V39.77h13.42V41H185.12V95.73A30.59,30.59,0,0,0,186.65,106.25Z"/><path d="M232.24,80.63a119.91,119.91,0,0,0,.61,12.05,32.44,32.44,0,0,0,2.9,10.9,19.82,19.82,0,0,0,6.63,7.86q4.35,3,12,3a23.24,23.24,0,0,0,9.69-1.91,24.05,24.05,0,0,0,7.32-5.11,31.58,31.58,0,0,0,5.33-7.39,72.9,72.9,0,0,0,3.89-8.77l1.52.15a105.13,105.13,0,0,1-4.65,11.29,29.78,29.78,0,0,1-6.63,9,28.68,28.68,0,0,1-10.22,6,46.16,46.16,0,0,1-15.09,2.14c-2.75,0-5.19-.06-7.32-.16a32,32,0,0,1-6.48-1,41.12,41.12,0,0,1-6.94-2.51,67.4,67.4,0,0,1-8.54-4.88q-6.4-4-10.91-12.36t-4.49-20.28a45.84,45.84,0,0,1,2.51-16A35,35,0,0,1,210,51.36,34.4,34.4,0,0,1,219.13,44a49.25,49.25,0,0,1,10.14-4.2,56,56,0,0,1,9.6-1.9,68.56,68.56,0,0,1,20.82.76A40.51,40.51,0,0,1,272.12,43a26.05,26.05,0,0,1,9.15,8.31q3.57,5.27,3.58,13.5A10.14,10.14,0,0,1,282,72.4a17.88,17.88,0,0,1-7,4.12,36.4,36.4,0,0,1-9.07,1.67q-4.87.32-9.15.31H232.24Zm11-41.63a7.39,7.39,0,0,0-5.95,3A21.51,21.51,0,0,0,234,49.37a50.33,50.33,0,0,0-1.44,9.69c-.21,3.5-.31,6.84-.31,10v8.08h13.42a29.74,29.74,0,0,0,3.13-.31,7.2,7.2,0,0,0,4-1.83,6.43,6.43,0,0,0,1.45-2.36,15.52,15.52,0,0,0,.76-2.9c.15-1,.25-1.83.3-2.59s.08-1.3.08-1.6a74,74,0,0,0-1-13.42A26.15,26.15,0,0,0,251.76,44a9.77,9.77,0,0,0-3.74-4A9,9,0,0,0,243.83,39Z"/><path d="M343.56,41.6a28.35,28.35,0,0,1,4.88.53,15.12,15.12,0,0,1,5.49,2.21,14,14,0,0,1,4.42,4.88,16.83,16.83,0,0,1,1.83,8.39,20,20,0,0,1-1.45,7.93,17.69,17.69,0,0,1-3.66,5.56,14.43,14.43,0,0,1-4.88,3.28,13.46,13.46,0,0,1-5,1.07c-3.55,0-6-1.07-7.39-3.2S335.78,67,335.78,63a16.91,16.91,0,0,1,.53-4.2,23.24,23.24,0,0,1,1.3-3.73c.51-1.12,1-2.11,1.37-3a5.17,5.17,0,0,0,.61-2.06q0-4.11-2.13-4.11a5.68,5.68,0,0,0-4.88,2.59l-1.37,2c-1.13,1.53-1.81,4.3-2.06,8.31s-.38,8.77-.38,14.26v44.37H340.2v1.22H287.29v-1.22h11.59V41H287.29V39.77q4.26,0,10.14-.16t11.82-.53q5.94-.37,11.13-1a55.55,55.55,0,0,0,8.39-1.53V53.34A17.64,17.64,0,0,1,330,50.29a12.87,12.87,0,0,1,2-2.9l.61-.46a21.29,21.29,0,0,1,5.87-4.27A13,13,0,0,1,343.56,41.6Z"/><path d="M459,117.38v1.22H419.5v-8.84a22.34,22.34,0,0,1-1.76,2.67,35.56,35.56,0,0,1-3,3.28,10.19,10.19,0,0,1-1.91,1.52c-.66.41-1.29.76-1.9,1.07a5.93,5.93,0,0,1-2.14.76,38.63,38.63,0,0,1-7.62.77,41,41,0,0,1-9.76-1.23,36.29,36.29,0,0,1-9.76-4A33.26,33.26,0,0,1,367.5,98.4a39.53,39.53,0,0,1-2.67-9.91,75.78,75.78,0,0,1-.69-10.14,74.59,74.59,0,0,1,.69-10,38.45,38.45,0,0,1,2.67-9.84,34.57,34.57,0,0,1,5.41-8.84,33.92,33.92,0,0,1,8.77-7.32,34.13,34.13,0,0,1,17.54-4.88,25.76,25.76,0,0,1,9.15,1.45,18,18,0,0,1,6.4,4,35.31,35.31,0,0,1,2.82,3.13,30.83,30.83,0,0,1,1.91,2.66V13.08H408.06V11.86H419.5c3.76-.2,7.37-.46,10.82-.76q4.43-.3,9.23-.92a54.46,54.46,0,0,0,8-1.52V117.38ZM419.5,63q0-3.06-.23-6a21.87,21.87,0,0,0-1.15-5.49,40.09,40.09,0,0,0-1.67-4,9.49,9.49,0,0,0-2.6-3.28A15.32,15.32,0,0,0,411,42.05a5.32,5.32,0,0,0-2.51-.61,7.82,7.82,0,0,0-5,1.91,18.87,18.87,0,0,0-3.89,4.19q-2.75,4.27-3.2,12.66T396,78.5q0,9.91.54,17.92c.35,5.33,1.45,9.43,3.28,12.27.4.61.93,1.35,1.6,2.21a21.35,21.35,0,0,0,2.36,2.6,12.67,12.67,0,0,0,3,2.13,7.75,7.75,0,0,0,3.51.84,3,3,0,0,0,2.06-.61l2.36-2.14a10.27,10.27,0,0,0,2.06-3,20.15,20.15,0,0,0,1.29-3.65A35.82,35.82,0,0,0,419.5,97Z"/><path d="M558,117.38v1.22h-39.5V105.34a19.68,19.68,0,0,1-6.1,7.47,24.16,24.16,0,0,1-7.7,4.42,26.42,26.42,0,0,1-8.61,1.37,59.57,59.57,0,0,1-9.38-.76,22.18,22.18,0,0,1-8.77-3.35,16.88,16.88,0,0,1-6.1-7.17,28.42,28.42,0,0,1-1.3-3.43,12.41,12.41,0,0,1-.53-3.58V60.51q0-8.7-1.9-14.11T461.28,41V39.77h13a36.28,36.28,0,0,1,12.43,1.83,21,21,0,0,1,7.93,4.88,17,17,0,0,1,4.19,7.16A31.18,31.18,0,0,1,500,62.49V99.85a27.57,27.57,0,0,0,.69,6.1,14.24,14.24,0,0,0,2.36,5.34,4.58,4.58,0,0,0,2.52,1.44,12.64,12.64,0,0,0,3,.39,4.47,4.47,0,0,0,2.59-.84,12.23,12.23,0,0,0,2.29-2.06,13.21,13.21,0,0,0,2-3.28,28.7,28.7,0,0,0,1.53-4.42c.4-1.58.74-3.18,1-4.81s.43-3.15.53-4.57V41H507V39.77h11.43c3.76-.21,7.37-.46,10.83-.77,3-.2,6-.5,9.23-.91a55.23,55.23,0,0,0,8-1.53v80.82Z"/><path d="M659.06,118.6H645.64a39.06,39.06,0,0,1-12.58-1.75,21.69,21.69,0,0,1-8.31-4.88,17.94,17.94,0,0,1-4.58-7.24,28,28,0,0,1-1.37-8.85V53.49a28.23,28.23,0,0,0-.68-6.1,14.26,14.26,0,0,0-2.37-5.34,4.62,4.62,0,0,0-2.36-1.45,11.3,11.3,0,0,0-2.82-.38,4.47,4.47,0,0,0-2.59.84,12.23,12.23,0,0,0-2.29,2.06,10.58,10.58,0,0,0-2.29,3.81,46.6,46.6,0,0,0-1.6,5.26,43.5,43.5,0,0,0-1,5.57,41.33,41.33,0,0,0-.31,4.58v55h11.44v1.22H558v-1.22H569.4V41H557.8V39.77q4.28,0,10.38-.16t12.19-.53q6.11-.37,11.52-1a55.18,55.18,0,0,0,8.61-1.53V48.15a21.39,21.39,0,0,1,2.59-4.27,20.36,20.36,0,0,1,3.67-3.35,24.06,24.06,0,0,1,7.7-4.42,26.43,26.43,0,0,1,8.61-1.38,67.11,67.11,0,0,1,9.76.77A22.42,22.42,0,0,1,642,38.85a17,17,0,0,1,6.1,7.17,28.42,28.42,0,0,1,1.3,3.43,12.41,12.41,0,0,1,.53,3.58V97.87c0,6,.69,10.75,2.06,14.25s3.74,5.26,7.09,5.26Z"/><circle cx="117.8" cy="15.88" r="13.77"/><circle cx="484.2" cy="13.77" r="13.77"/><circle cx="530.8" cy="13.77" r="13.77"/></g></g></svg>